<svg xmlns="http://www.w3.org/2000/svg" viewBox="58.89 50 432 489.8">
	<path d="M472.8 341.654 387 251C372 237 367 232 358 227L349 224C336 214 336 211 332 200L329.646 117.5C329.646 80.213 308.433 50 271.146 50S212.646 80.213 212.646 117.5L208.308 204.098C209.109 218.993 165.783 240.152 155.955 251.357L76.692 341.654C66.855 352.859 58.89 370.679 58.89 381.443 58.89 392.216 70.617 398.012 85.08 394.394L155.046 376.907C169.509 373.298 199 363 207 380L221.628 451.949C221.628 455.648 221.763 459.266 222.015 462.794 222.456 468.779 213.33 480.434 201.054 488.894L189.858 496.616C177.582 505.085 167.628 519.332 167.628 528.458 167.628 537.575 179.373 542.111 193.863 538.583L246.405 525.821C260.895 522.293 284.367 522.374 298.83 526.001L348.438 538.412C362.91 542.03 374.628 536.576 374.628 526.217S363.657 502.394 350.121 496.121L341.94 492.341C339 493 329 485 323 472 320.394 461.876 320.628 456.98 320.628 451.949L323.67 395.474C324.471 380.579 372.846 371.444 387.309 375.053L464.691 394.394C479.163 398.003 490.881 392.216 490.881 381.443 490.881 370.679 482.907 352.859 473.07 341.654Z" fill="#000000"/>
</svg>